# xmcd CD database file
#
# Track frame offsets:
#	150
#	19662
#	37650
#	54227
#
# Disc length: 917 seconds
#
# Revision: 0
# Processed by: cddbd v1.5.1PL0 Copyright (c) Steve Scherf et al.
# Submitted via: CDex 1.51
#
DISCID=1f039304
DTITLE=国実百合 - 北風と太陽
DYEAR=1900
DGENRE=J ポップ
TTITLE0=寒い朝
TTITLE1=北風よ
TTITLE2=お元気ですか
TTITLE3=そばにいて下さい
EXTD=
EXTT0=
EXTT1=
EXTT2=
EXTT3=
PLAYORDER=
